# xmcd CD database file
#
# Track frame offsets:
#	150
#	22732
#	47087
#	69317
#	81765
#	105242
#	132735
#	157940
#	188902
#	216920
#	234175
#
# Disc length: 3486 seconds
#
# Revision: 1
# Processed by: cddbd v1.5.1PL2 Copyright (c) Steve Scherf et al.
# Submitted via: CDex 1.51
#
DISCID=840d9c0b
DTITLE=Pee Wee Ellis - What you like
DYEAR=1997
DGENRE=Jazz
TTITLE0=01The prophet 
TTITLE1=02Take me to the river 
TTITLE2=03Soul drive 
TTITLE3=04I will be there
TTITLE4=05I get along withoug your... 
TTITLE5=06 2 dock ''C'' 
TTITLE6=07Your love is 
TTITLE7=08Far from home 
TTITLE8=09Tune with awiew 
TTITLE9=10Step 
TTITLE10=11Wat you like 
EXTD=YEAR: 1997
EXTT0=
EXTT1=
EXTT2=
EXTT3=
EXTT4=
EXTT5=
EXTT6=
EXTT7=
EXTT8=
EXTT9=
EXTT10=
PLAYORDER=
